# xmcd CD database file
#
# Track frame offsets:
#	150
#	16650
#	38289
#	55535
#	75370
#	94723
#	115885
#
# Disc length: 1811 seconds
#
# Revision: 0
# Processed by: cddbd v1.5.1PL0 Copyright (c) Steve Scherf et al.
# Submitted via: NeoAudio 9.9.9
#
DISCID=38071107
DTITLE=Lindsay Wynn - November Moon
DYEAR=2004
DGENRE=Jazz
TTITLE0=Burden of Doubt
TTITLE1=The Art of Making Love
TTITLE2=A Million and One
TTITLE3=November Moon
TTITLE4=Eventually
TTITLE5=The Art of Making Love (Acoustic)
TTITLE6=November Moon (Acoustic)
EXTD=YEAR: 2004
EXTT0=
EXTT1=
EXTT2=
EXTT3=
EXTT4=
EXTT5=
EXTT6=
PLAYORDER=
